:SAMPLES-PER-SECOND 30
:FRAME-RANGE 1-668
:FULLY-SPECIFIED
:DEGREES
564
root  3.79043 40.3087 -14.5483 -179.136 -56.8246 -176.733
RightUpLeg  -0.230818 -4.29731 -0.219242
RightLeg  1.61171 -8.80497 1.28004
RightFoot  -4.40359 -0.246647 3.58204
RightToes  -1.33073e-015 0 -3.6325e-017
Spine  2.59791 0.338985 2.20504
Spine1  7.79756 1.1856 -2.65456
HEad  -7.76812 67.0332 -13.1142
LeftShoulder1  1.75736 -1.61554 -28.2439
LeftArm  -38.1125 -21.9425 -7.17872
LeftForeArm  -5.87008 0.918103 -10.3741
LeftHand  -0.0253185 3.11848 0.443857
RightShoulder  10.6656 16.6997 46.1399
RightArm  -19.0877 7.68365 4.74044
RightForeArm  25.0623 -7.70194 11.3015
RightHand  -0.367981 3.49807 -5.05359
LeftUpLeg  -3.99078 8.84013 10.7461
LeftLeg  0.966385 -7.87389 -0.322418
LeftFoot  0.549639 1.13594 -10.9254
LeftToes  -2.73175e-012 1.00346e-010 -4.28452e-011
565
root  3.71249 40.3168 -14.4951 -178.742 -56.3641 -177.18
RightUpLeg  -0.340768 -4.30973 -0.504026
RightLeg  1.80566 -8.37761 1.01304
RightFoot  -4.49658 -0.259979 3.79813
RightToes  -1.33073e-015 0 -3.6325e-017
Spine  2.2665 0.342768 2.63457
Spine1  8.12987 1.07569 -2.19881
HEad  -5.9845 67.386 -12.0085
LeftShoulder1  1.73391 -1.56591 -28.1136
LeftArm  -37.488 -20.7683 -7.88923
LeftForeArm  -10.9638 2.31712 -10.2013
LeftHand  -0.0140781 4.34844 -1.19299
RightShoulder  10.5962 16.4698 46.3778
RightArm  -19.0512 7.24164 4.78575
RightForeArm  25.0168 -7.71374 11.3741
RightHand  -0.325092 3.34931 -4.56045
LeftUpLeg  -3.62432 8.92963 10.5292
LeftLeg  0.615066 -7.48789 -0.538634
LeftFoot  0.556857 1.1269 -10.8235
LeftToes  -2.73175e-012 1.00346e-010 -4.28452e-011
566
root  3.63403 40.3252 -14.4581 -178.529 -55.9108 -177.439
RightUpLeg  -0.426544 -4.316 -0.704735
RightLeg  2.00289 -7.71268 0.83405
RightFoot  -4.50641 -0.252998 3.7207
RightToes  -1.33073e-015 0 -3.6325e-017
Spine  2.01262 0.34286 3.09403
Spine1  8.41536 0.916885 -1.59861
HEad  -4.93172 67.6421 -11.5517
LeftShoulder1  1.70041 -1.48597 -27.9861
LeftArm  -36.713 -19.0554 -8.70796
LeftForeArm  -14.751 3.4754 -10.0729
LeftHand  -0.0286558 5.26599 -2.79808
RightShoulder  10.4966 16.1571 46.6854
RightArm  -19.0687 6.92836 4.78329
RightForeArm  24.8061 -7.724 11.4274
RightHand  -0.29381 3.456 -4.1024
LeftUpLeg  -3.2568 9.14439 10.4677
LeftLeg  0.349566 -7.24168 -0.809999
LeftFoot  0.525336 1.12088 -10.793
LeftToes  -2.73175e-012 1.00346e-010 -4.28452e-011
567
root  3.55925 40.3285 -14.4403 -178.251 -55.296 -177.714
RightUpLeg  -0.59606 -4.35433 -0.927813
RightLeg  2.28869 -7.15296 0.710104
RightFoot  -4.67522 -0.259821 3.91242
RightToes  -1.33073e-015 0 -3.6325e-017
Spine  1.79632 0.416841 3.55759
Spine1  8.53581 0.837882 -1.0321
HEad  -4.59047 67.8489 -11.6125
LeftShoulder1  1.67184 -1.39872 -28.0095
LeftArm  -36.1847 -16.8685 -9.32435
LeftForeArm  -16.653 4.65223 -9.82662
LeftHand  -0.0505994 5.75788 -4.46679
RightShoulder  10.4516 15.8703 47.1889
RightArm  -18.9697 6.51679 4.66405
RightForeArm  24.3279 -7.73961 11.5001
RightHand  -0.262315 3.41759 -3.70282
LeftUpLeg  -2.9444 9.25299 10.3638
LeftLeg  0.169817 -6.74693 -0.974448
LeftFoot  0.451374 1.10857 -10.7382
LeftToes  -2.73175e-012 1.00346e-010 -4.28452e-011
568
root  3.4915 40.3231 -14.4503 -177.955 -54.5958 -177.963
RightUpLeg  -0.8508 -4.28117 -1.0405
RightLeg  2.64661 -6.5375 0.496662
RightFoot  -4.9296 -0.258253 4.00912
RightToes  -1.33073e-015 0 -3.6325e-017
Spine  1.53626 0.519196 4.18054
Spine1  8.72227 0.844277 -0.686148
HEad  -4.7144 67.8433 -11.9817
LeftShoulder1  1.60428 -1.18275 -28.1404
LeftArm  -35.507 -14.3897 -9.84718
LeftForeArm  -18.7581 5.20498 -9.70155
LeftHand  -0.0825492 6.1878 -6.04057
RightShoulder  10.4358 15.6691 47.623
RightArm  -18.8156 5.99688 4.72468
RightForeArm  24.2981 -7.73675 11.4803
RightHand  -0.263067 3.45595 -3.69922
LeftUpLeg  -2.70341 9.36978 10.2899
LeftLeg  0.122568 -6.136 -1.1208
LeftFoot  0.259867 1.1008 -10.8286
LeftToes  -2.73175e-012 1.00346e-010 -4.28452e-011
569
root  3.4454 40.3034 -14.502 -177.589 -53.8392 -178.244
RightUpLeg  -1.26397 -4.07076 -1.05402
RightLeg  3.27674 -6.13352 0.169912
RightFoot  -5.52253 -0.253656 4.24873
RightToes  -1.33073e-015 0 -3.6325e-017
Spine  1.35106 0.687303 4.6994
Spine1  8.62506 0.91291 -0.326628
HEad  -5.15277 67.7912 -12.3497
LeftShoulder1  1.54424 -1.00205 -28.1796
LeftArm  -34.5333 -11.4418 -10.4038
LeftForeArm  -19.4515 5.45704 -9.74917
LeftHand  -0.102809 6.37665 -6.98247
RightShoulder  10.3064 15.2299 48.1484
RightArm  -18.7632 5.78952 4.74156
RightForeArm  24.276 -7.731 11.4862
RightHand  -0.248784 3.5044 -3.49601
LeftUpLeg  -2.55851 9.50187 10.2648
LeftLeg  0.203084 -5.53529 -1.26887
LeftFoot  0.0115139 1.09004 -10.9434
LeftToes  -2.73175e-012 1.00346e-010 -4.28452e-011
570
root  3.41876 40.2682 -14.6079 -177.226 -53.1112 -178.653
RightUpLeg  -1.67343 -3.89885 -1.10477
RightLeg  4.25593 -5.73009 -0.173563
RightFoot  -6.5329 -0.240248 4.66016
RightToes  -1.33073e-015 0 -3.6325e-017
Spine  1.17528 0.845344 5.05871
Spine1  8.57663 0.978311 0.0111314
HEad  -5.90396 67.6741 -12.905
LeftShoulder1  1.4815 -0.818134 -28.1843
LeftArm  -33.7986 -8.15983 -10.8478
LeftForeArm  -19.4159 5.2305 -9.72884
LeftHand  -0.0947592 6.10141 -8.39131
RightShoulder  10.3085 15.041 48.656
RightArm  -18.6633 5.39342 4.82478
RightForeArm  24.2881 -7.73546 11.4715
RightHand  -0.238801 3.56676 -3.34652
LeftUpLeg  -2.30638 9.65155 10.2612
LeftLeg  0.367458 -5.03554 -1.42608
LeftFoot  -0.34113 1.0838 -11.2083
LeftToes  -2.73175e-012 1.00346e-010 -4.28452e-011
571
root  3.38526 40.2212 -14.7736 -176.951 -52.6675 -179.282
RightUpLeg  -1.71833 -4.13536 -1.4405
RightLeg  5.43856 -5.67829 -0.295335
RightFoot  -8.0251 -0.204738 5.18338
RightToes  -1.33073e-015 0 -3.6325e-017
Spine  0.948696 0.881985 5.43357
Spine1  8.65731 0.976269 0.105807
HEad  -6.04945 67.4537 -12.9947
LeftShoulder1  1.43321 -0.645013 -28.4553
LeftArm  -32.8032 -4.9537 -10.8648
LeftForeArm  -19.9995 4.27549 -9.92154
LeftHand  -0.0849373 5.95272 -8.71648
RightShoulder  10.3496 14.9149 49.1882
RightArm  -18.4889 4.96159 4.87885
RightForeArm  24.2678 -7.74133 11.5079
RightHand  -0.230106 3.60578 -3.22247
LeftUpLeg  -1.72414 9.72097 10.1774
LeftLeg  0.406047 -4.76188 -1.50538
LeftFoot  -0.676025 1.07567 -11.4525
LeftToes  -2.73175e-012 1.00346e-010 -4.28452e-011
